<?xml version="1.0" encoding="UTF-8"?>
<svg version="1.1" xmlns="http://www.w3.org/2000/svg" width="984" height="276">
<path d="M0 0 C324.72 0 649.44 0 984 0 C984 91.08 984 182.16 984 276 C659.28 276 334.56 276 0 276 C0 184.92 0 93.84 0 0 Z " fill="#5E5E5E" transform="translate(0,0)"/>
<path d="M0 0 C11.75625 -0.28875 23.5125 -0.5775 35.625 -0.875 C39.30865723 -1.00245605 42.99231445 -1.12991211 46.78759766 -1.26123047 C74.74765542 -1.8695183 74.74765542 -1.8695183 82.2265625 4.8359375 C90.88787815 14.82807596 89.06897426 32.23640261 88.82519531 44.62158203 C88.74535326 48.68711104 88.79294347 52.73986454 88.87295723 56.80496025 C89.36963 85.92345306 89.36963 85.92345306 82.2265625 94.1640625 C71.29926715 103.96128222 48.82500438 100.33172558 35.625 99.875 C23.86875 99.58625 12.1125 99.2975 0 99 C0 66.33 0 33.66 0 0 Z " fill="#FDFDFD" transform="translate(218,50)"/>
<path d="M0 0 C1.25655396 -0.01339417 2.51310791 -0.02678833 3.80773926 -0.04058838 C7.11348291 -0.05244631 10.40969022 0.00300029 13.71417236 0.08203125 C15.72049909 0.10939886 17.71826531 0.08215232 19.72412109 0.03417969 C23.63249639 -0.05319586 27.52856978 -0.04166702 31.4375 0 C33.19906433 -0.04250885 33.19906433 -0.04250885 34.99621582 -0.08587646 C43.60209667 0.24873729 48.9441792 3.58162686 54.81446266 9.59097099 C61.53040394 17.52150851 60.99475172 25.91378 60.5859375 35.8203125 C60.55976283 37.70594867 60.5398641 39.59168131 60.52590942 41.47744751 C60.4729345 46.3955467 60.3358871 51.30767855 60.18005371 56.22344971 C60.03575954 61.25752031 59.97267168 66.29257412 59.90234375 71.328125 C59.75304923 81.17489375 59.50724417 91.01570039 59.21875 100.859375 C50.96875 100.859375 42.71875 100.859375 34.21875 100.859375 C34.21875 91.619375 34.21875 82.379375 34.21875 72.859375 C22.33875 72.859375 10.45875 72.859375 -1.78125 72.859375 C-1.78125 82.099375 -1.78125 91.339375 -1.78125 100.859375 C-10.36125 100.859375 -18.94125 100.859375 -27.78125 100.859375 C-28.09896381 90.01870062 -28.35516589 79.18117084 -28.50662041 68.33687401 C-28.57935449 63.2999567 -28.67779019 58.2664179 -28.83740234 53.23144531 C-28.99079149 48.36167499 -29.07347858 43.49512833 -29.1095314 38.62312698 C-29.13518099 36.77531827 -29.18527453 34.92766443 -29.26147079 33.08124924 C-29.62055889 24.00957099 -29.45369298 16.76669451 -23.37696266 9.59097099 C-16.37828093 2.42649806 -10.13922439 -0.24467274 0 0 Z " fill="#FEFEFE" transform="translate(352.78125,48.140625)"/>
<path d="M0 0 C1.23198624 -0.01576584 2.46397247 -0.03153168 3.73329163 -0.04777527 C6.31727651 -0.06157412 8.90166819 -0.04045919 11.48510742 0.0144043 C15.40545694 0.08195028 19.30151582 -0.00536611 23.22070312 -0.10742188 C25.75134006 -0.10176332 28.28197618 -0.08708645 30.8125 -0.0625 C31.95984116 -0.09600052 33.10718231 -0.12950104 34.28929138 -0.16401672 C43.18549221 0.18751759 48.6539942 4.10925846 54.69728851 10.28098679 C61.6745408 18.40602188 61.39721873 26.49499553 60.9375 36.734375 C60.90944818 38.59614929 60.88813167 40.45803594 60.8731842 42.31996155 C60.81648017 47.17110484 60.66970789 52.01528007 60.50262451 56.8637085 C60.34789416 61.8307061 60.28040318 66.79885436 60.20507812 71.76757812 C60.04521843 81.48008442 59.78191744 91.1856329 59.47265625 100.89453125 C50.89265625 100.89453125 42.31265625 100.89453125 33.47265625 100.89453125 C33.47265625 91.65453125 33.47265625 82.41453125 33.47265625 72.89453125 C21.59265625 72.89453125 9.71265625 72.89453125 -2.52734375 72.89453125 C-2.52734375 82.13453125 -2.52734375 91.37453125 -2.52734375 100.89453125 C-10.77734375 100.89453125 -19.02734375 100.89453125 -27.52734375 100.89453125 C-27.84505756 90.05385687 -28.10125964 79.21632709 -28.25271416 68.37203026 C-28.32544824 63.33511295 -28.42388394 58.30157415 -28.58349609 53.26660156 C-28.73688524 48.39683124 -28.81957233 43.53028458 -28.85562515 38.65828323 C-28.88127474 36.81047452 -28.93136828 34.96282068 -29.00756454 33.11640549 C-29.36694637 24.03730692 -29.20175742 16.80199233 -23.11008739 9.6279192 C-16.1912093 2.55794818 -10.02924586 -0.21991166 0 0 Z " fill="#FEFEFE" transform="translate(550.52734375,48.10546875)"/>
<path d="M0 0 C3.46099395 0.07987458 6.90695285 0.03254395 10.36742973 -0.04819679 C33.56095922 -0.50767025 33.56095922 -0.50767025 41.69299316 6.52606201 C46.60773545 11.56132706 49.15762272 15.47156302 49.55285645 22.61846924 C49.51224541 25.75222652 49.15696727 28.73243308 48.65087891 31.82519531 C45.627058 32.01550572 42.61532963 32.15339495 39.58837891 32.26269531 C38.74082031 32.32134766 37.89326172 32.38 37.02001953 32.44042969 C34.39822651 32.51128896 32.1989574 32.46582546 29.65087891 31.82519531 C28.15112305 30.26879883 28.15112305 30.26879883 26.74462891 28.35644531 C24.21951901 25.43767726 22.28826791 24.57782918 18.54956055 24.15551758 C13.43971936 23.82551797 8.33136075 23.85358478 3.21337891 23.88769531 C1.41452498 23.87457681 -0.38430903 23.8583322 -2.18310547 23.83886719 C-6.57346885 23.79231193 -10.95682834 23.81030618 -15.34912109 23.82519531 C-15.34912109 29.43519531 -15.34912109 35.04519531 -15.34912109 40.82519531 C-13.18712158 40.71522217 -13.18712158 40.71522217 -10.98144531 40.60302734 C-5.57418143 40.34739963 -0.16743492 40.18814199 5.24414062 40.05615234 C7.57448432 39.98623881 9.90422485 39.89106036 12.23242188 39.76904297 C33.50719715 38.68294333 33.50719715 38.68294333 41.33950806 45.08297729 C47.07422939 50.74747088 50.28438162 56.53385401 50.58407593 64.71554565 C50.57129811 66.07217456 50.53520241 67.42877971 50.47607422 68.78417969 C50.40038896 70.83849395 50.47537941 72.85028382 50.56494141 74.90332031 C50.64275666 82.70383039 48.53220948 88.82653164 43.44775391 94.71582031 C35.41788801 102.70586824 25.24236842 102.74877278 14.45473099 102.75763702 C12.40304916 102.73910096 10.35295496 102.69814142 8.30175781 102.65039062 C4.84076361 102.57051604 1.39480506 102.61784152 -2.06567192 102.69859505 C-25.26234193 103.15804451 -25.26234193 103.15804451 -33.39123535 96.09991455 C-38.87310301 90.46290667 -41.04015777 86.39388819 -41.22412109 78.45019531 C-41.00292242 76.23369431 -40.73622985 74.01881159 -40.34912109 71.82519531 C-37.14148809 71.64974274 -33.93509786 71.54397906 -30.72412109 71.45019531 C-29.82048828 71.39992188 -28.91685547 71.34964844 -27.98583984 71.29785156 C-27.10283203 71.27851562 -26.21982422 71.25917969 -25.31005859 71.23925781 C-24.50358887 71.20783691 -23.69711914 71.17641602 -22.86621094 71.14404297 C-19.99941975 71.91982836 -19.48012204 72.63324171 -17.58154297 74.81152344 C-15.21508698 77.34893172 -13.74114201 78.27132993 -10.27148438 78.59814453 C-8.73796655 78.63867758 -7.20338231 78.64780458 -5.66943359 78.62988281 C-4.85666962 78.64358917 -4.04390564 78.65729553 -3.20651245 78.67141724 C-0.62847946 78.70859847 1.94761673 78.70501089 4.52587891 78.70019531 C6.28111719 78.71833062 8.03633005 78.73913593 9.79150391 78.76269531 C14.0790836 78.81943077 18.36164759 78.82094434 22.65087891 78.82519531 C22.65087891 73.54519531 22.65087891 68.26519531 22.65087891 62.82519531 C20.47933228 62.88803711 20.47933228 62.88803711 18.26391602 62.95214844 C12.87646275 63.09729552 7.48918101 63.18891463 2.1003418 63.26464844 C-0.22873018 63.30480206 -2.55760146 63.35933878 -4.88598633 63.42871094 C-8.24008713 63.52611809 -11.59151699 63.57120352 -14.94677734 63.60644531 C-15.98246353 63.6477356 -17.01814972 63.68902588 -18.08522034 63.73156738 C-25.23961988 63.73597644 -25.23961988 63.73597644 -28.47648621 61.07885742 C-30.32080078 58.93261719 -30.32080078 58.93261719 -31.84222412 56.79187012 C-33.44749015 54.69681232 -34.9454107 53.65079142 -37.20458984 52.32519531 C-40.23706066 49.79912925 -40.8821862 47.44183024 -41.36575317 43.56103516 C-41.58660657 40.71852706 -41.64844606 37.893037 -41.64624023 35.04248047 C-41.66145324 32.84939319 -41.78790878 30.68180599 -41.92138672 28.49316406 C-42.16730725 20.44271877 -40.53679941 14.0420292 -35.17333984 7.87207031 C-25.76302235 -1.40320517 -12.34606306 -0.28731963 0 0 Z " fill="#FDFDFD" transform="translate(670.34912109375,48.1748046875)"/>
<path d="M0 0 C27.72 0 55.44 0 84 0 C84 7.26 84 14.52 84 22 C64.86 22 45.72 22 26 22 C26 27.61 26 33.22 26 39 C42.5 39 59 39 76 39 C76 45.93 76 52.86 76 60 C59.5 60 43 60 26 60 C26 65.94 26 71.88 26 78 C45.14 78 64.28 78 84 78 C84 84.93 84 91.86 84 99 C75.11511441 99.31819149 66.23409709 99.57416328 57.34477043 99.72537041 C53.2154628 99.7980006 49.09030009 99.89620533 44.96337891 100.05615234 C40.96885738 100.20997243 36.97827907 100.29230613 32.98102188 100.3282814 C31.46802812 100.3538599 29.95521515 100.40381477 28.44393539 100.48022079 C20.38416047 100.8709327 14.37449407 100.08247925 7.92795181 94.91140366 C1.82440092 89.24721129 -1.15856869 83.96538571 -1.58935547 75.60791016 C-1.6388802 72.07638736 -1.51426253 68.5670414 -1.3671875 65.0390625 C-1.34654437 63.36554524 -1.33229831 61.69193678 -1.32446289 60.01831055 C-1.25174103 53.88580794 -1.05627896 47.75525404 -0.875 41.625 C-0.58625 27.88875 -0.2975 14.1525 0 0 Z " fill="#FEFEFE" transform="translate(739,50)"/>
<path d="M0 0 C28.05 0 56.1 0 85 0 C85 7.26 85 14.52 85 22 C75.1 22 65.2 22 55 22 C55 47.41 55 72.82 55 99 C46.42 99 37.84 99 29 99 C29 73.59 29 48.18 29 22 C19.43 22 9.86 22 0 22 C0 14.74 0 7.48 0 0 Z " fill="#FCFCFC" transform="translate(836,50)"/>
<path d="M0 0 C28.05 0 56.1 0 85 0 C85 7.26 85 14.52 85 22 C75.1 22 65.2 22 55 22 C55 47.41 55 72.82 55 99 C46.42 99 37.84 99 29 99 C29 73.59 29 48.18 29 22 C19.43 22 9.86 22 0 22 C0 14.74 0 7.48 0 0 Z " fill="#FCFCFC" transform="translate(425,50)"/>
<path d="M0 0 C11.55 0 23.1 0 35 0 C35 18.15 35 36.3 35 55 C23.45 55 11.9 55 0 55 C0 36.85 0 18.7 0 0 Z " fill="#565656" transform="translate(244,72)"/>
<path d="M0 0 C1.08925781 -0.00644531 2.17851562 -0.01289063 3.30078125 -0.01953125 C4.99267578 0.00947266 4.99267578 0.00947266 6.71875 0.0390625 C7.84667969 0.01972656 8.97460938 0.00039062 10.13671875 -0.01953125 C11.22597656 -0.01308594 12.31523437 -0.00664062 13.4375 0 C14.42685547 0.00563965 15.41621094 0.0112793 16.43554688 0.01708984 C20.39043385 0.93642761 21.83442683 2.40222254 24.21875 5.6640625 C24.65775428 8.58792541 24.80833897 10.90447195 24.70703125 13.80859375 C24.69995651 14.57838058 24.69288177 15.34816742 24.68559265 16.14128113 C24.65771925 18.58738553 24.59500137 21.03115634 24.53125 23.4765625 C24.50615768 25.13994077 24.48334613 26.80335512 24.46289062 28.46679688 C24.40791671 32.53344407 24.32169927 36.59835839 24.21875 40.6640625 C20.58875 40.6640625 16.95875 40.6640625 13.21875 40.6640625 C13.21875 37.0340625 13.21875 33.4040625 13.21875 29.6640625 C8.59875 29.6640625 3.97875 29.6640625 -0.78125 29.6640625 C-0.78125 33.2940625 -0.78125 36.9240625 -0.78125 40.6640625 C-4.08125 40.6640625 -7.38125 40.6640625 -10.78125 40.6640625 C-10.9051448 35.77117085 -10.99572509 30.87919823 -11.0559082 25.98510742 C-11.08100347 24.32153411 -11.11508796 22.65807054 -11.15844727 20.99487305 C-11.2193246 18.59917097 -11.24750769 16.20492999 -11.26953125 13.80859375 C-11.29533768 13.0688179 -11.3211441 12.32904205 -11.34773254 11.56684875 C-11.34981083 7.71273329 -10.90718698 5.83634883 -8.61206055 2.6965332 C-5.41201123 0.39895575 -3.89379977 0.02219593 0 0 Z " fill="#FBFBFB" transform="translate(363.78125,172.3359375)"/>
<path d="M0 0 C1.08925781 -0.00644531 2.17851562 -0.01289063 3.30078125 -0.01953125 C4.99267578 0.00947266 4.99267578 0.00947266 6.71875 0.0390625 C7.84667969 0.01972656 8.97460938 0.00039062 10.13671875 -0.01953125 C11.22597656 -0.01308594 12.31523437 -0.00664062 13.4375 0 C14.42685547 0.00563965 15.41621094 0.0112793 16.43554688 0.01708984 C20.39043385 0.93642761 21.83442683 2.40222254 24.21875 5.6640625 C24.65775428 8.58792541 24.80833897 10.90447195 24.70703125 13.80859375 C24.69995651 14.57838058 24.69288177 15.34816742 24.68559265 16.14128113 C24.65771925 18.58738553 24.59500137 21.03115634 24.53125 23.4765625 C24.50615768 25.13994077 24.48334613 26.80335512 24.46289062 28.46679688 C24.40791671 32.53344407 24.32169927 36.59835839 24.21875 40.6640625 C20.91875 40.6640625 17.61875 40.6640625 14.21875 40.6640625 C14.21875 37.0340625 14.21875 33.4040625 14.21875 29.6640625 C9.59875 29.6640625 4.97875 29.6640625 0.21875 29.6640625 C0.21875 33.2940625 0.21875 36.9240625 0.21875 40.6640625 C-3.41125 40.6640625 -7.04125 40.6640625 -10.78125 40.6640625 C-10.9051448 35.77117085 -10.99572509 30.87919823 -11.0559082 25.98510742 C-11.08100347 24.32153411 -11.11508796 22.65807054 -11.15844727 20.99487305 C-11.2193246 18.59917097 -11.24750769 16.20492999 -11.26953125 13.80859375 C-11.29533768 13.0688179 -11.3211441 12.32904205 -11.34773254 11.56684875 C-11.34981083 7.71273329 -10.90718698 5.83634883 -8.61206055 2.6965332 C-5.41201123 0.39895575 -3.89379977 0.02219593 0 0 Z " fill="#FBFBFB" transform="translate(276.78125,172.3359375)"/>
<path d="M0 0 C3.63 0 7.26 0 11 0 C13.97 5.28 16.94 10.56 20 16 C22.41290697 12.7827907 24.25298482 9.83546324 26.125 6.3125 C28.90084986 1.09915014 28.90084986 1.09915014 30 0 C33.3 0 36.6 0 40 0 C40 13.2 40 26.4 40 40 C36.7 40 33.4 40 30 40 C29.505 30.1 29.505 30.1 29 20 C26.03 25.445 26.03 25.445 23 31 C21.35 31 19.7 31 18 31 C15.46383478 27.91919192 13.90004649 24.53497021 12 21 C11.67 27.27 11.34 33.54 11 40 C7.37 40 3.74 40 0 40 C0 26.8 0 13.6 0 0 Z " fill="#FAFAFA" transform="translate(880,173)"/>
<path d="M0 0 C3.63 0 7.26 0 11 0 C12.33838733 2.45570175 13.67086232 4.91429916 15 7.375 C15.3815625 8.07367188 15.763125 8.77234375 16.15625 9.4921875 C19 14.7734375 19 14.7734375 19 17 C19.66 17 20.32 17 21 17 C21.20625 16.236875 21.4125 15.47375 21.625 14.6875 C23.55894391 9.50101406 26.2785146 4.80966916 29 0 C32.63 0 36.26 0 40 0 C40 13.2 40 26.4 40 40 C36.7 40 33.4 40 30 40 C29.67 33.07 29.34 26.14 29 19 C27.02 22.96 25.04 26.92 23 31 C21.02 31 19.04 31 17 31 C15.02 27.04 13.04 23.08 11 19 C10.67 25.93 10.34 32.86 10 40 C6.7 40 3.4 40 0 40 C0 26.8 0 13.6 0 0 Z " fill="#FDFDFD" transform="translate(482,173)"/>
<path d="M0 0 C3.63 0 7.26 0 11 0 C12.33838733 2.45570175 13.67086232 4.91429916 15 7.375 C15.3815625 8.07367188 15.763125 8.77234375 16.15625 9.4921875 C19 14.7734375 19 14.7734375 19 17 C19.66 17 20.32 17 21 17 C21.20625 16.236875 21.4125 15.47375 21.625 14.6875 C23.55894391 9.50101406 26.2785146 4.80966916 29 0 C32.63 0 36.26 0 40 0 C40 13.2 40 26.4 40 40 C36.7 40 33.4 40 30 40 C29.67 33.07 29.34 26.14 29 19 C27.02 22.96 25.04 26.92 23 31 C21.02 31 19.04 31 17 31 C15.02 27.04 13.04 23.08 11 19 C10.67 25.93 10.34 32.86 10 40 C6.7 40 3.4 40 0 40 C0 26.8 0 13.6 0 0 Z " fill="#FDFDFD" transform="translate(218,173)"/>
<path d="M0 0 C10 0 10 0 12.20507812 1.51293945 C12.64271484 2.20605225 13.08035156 2.89916504 13.53125 3.61328125 C14.28148437 4.7434668 14.28148437 4.7434668 15.046875 5.89648438 C15.52640625 6.69376953 16.0059375 7.49105469 16.5 8.3125 C17.01046875 9.09818359 17.5209375 9.88386719 18.046875 10.69335938 C19.39538059 12.77821999 20.69877921 14.88551621 22 17 C22.66 17.99 23.32 18.98 24 20 C24.33 13.4 24.66 6.8 25 0 C28.63 0 32.26 0 36 0 C36 13.2 36 26.4 36 40 C26 40 26 40 23.79492188 38.48706055 C23.35728516 37.79394775 22.91964844 37.10083496 22.46875 36.38671875 C21.71851563 35.2565332 21.71851563 35.2565332 20.953125 34.10351562 C20.47359375 33.30623047 19.9940625 32.50894531 19.5 31.6875 C18.98953125 30.90181641 18.4790625 30.11613281 17.953125 29.30664062 C16.60461941 27.22178001 15.30122079 25.11448379 14 23 C13.34 22.01 12.68 21.02 12 20 C11.67 26.6 11.34 33.2 11 40 C7.37 40 3.74 40 0 40 C0 26.8 0 13.6 0 0 Z " fill="#F8F8F8" transform="translate(309,173)"/>
<path d="M0 0 C10 0 10 0 12.20507812 1.51293945 C12.64271484 2.20605225 13.08035156 2.89916504 13.53125 3.61328125 C14.28148437 4.7434668 14.28148437 4.7434668 15.046875 5.89648438 C15.52640625 6.69376953 16.0059375 7.49105469 16.5 8.3125 C17.01046875 9.09818359 17.5209375 9.88386719 18.046875 10.69335938 C19.39538059 12.77821999 20.69877921 14.88551621 22 17 C22.66 17.99 23.32 18.98 24 20 C24.33 13.4 24.66 6.8 25 0 C28.3 0 31.6 0 35 0 C35 13.2 35 26.4 35 40 C26 40 26 40 23.80078125 38.37939453 C23.30964844 37.63802246 22.81851563 36.89665039 22.3125 36.1328125 C21.75949219 35.32972656 21.20648437 34.52664062 20.63671875 33.69921875 C20.09660156 32.84972656 19.55648437 32.00023437 19 31.125 C18.42894531 30.28324219 17.85789062 29.44148438 17.26953125 28.57421875 C13.45755328 22.91510657 13.45755328 22.91510657 12 20 C11.67 26.6 11.34 33.2 11 40 C7.37 40 3.74 40 0 40 C0 26.8 0 13.6 0 0 Z " fill="#FBFBFB" transform="translate(572,173)"/>
<path d="M0 0 C1.7634375 -0.02900391 1.7634375 -0.02900391 3.5625 -0.05859375 C13.13228522 -0.00421997 13.13228522 -0.00421997 16.29296875 2.92578125 C18.45926296 6.35120299 18.39002137 8.64678201 18 12.625 C11.9453125 12.8203125 11.9453125 12.8203125 10 12.625 C9.34 11.965 8.68 11.305 8 10.625 C5.43083343 10.31900937 2.95241616 10.11412913 0.375 10 C-0.33140625 9.96132812 -1.0378125 9.92265625 -1.765625 9.8828125 C-3.50998524 9.78852276 -5.25495691 9.70567109 -7 9.625 C-7 11.605 -7 13.585 -7 15.625 C-5.69804688 15.55539063 -4.39609375 15.48578125 -3.0546875 15.4140625 C-1.3281768 15.35776324 0.39838996 15.30316541 2.125 15.25 C2.9809375 15.19972656 3.836875 15.14945313 4.71875 15.09765625 C9.17489418 14.99482215 12.16250803 15.15743759 15.57421875 18.20703125 C18.37569836 21.54240747 18.77781603 24.31905615 18.6875 28.6875 C18.69330078 30.46833984 18.69330078 30.46833984 18.69921875 32.28515625 C18 35.625 18 35.625 16.234375 38.515625 C11.21684243 41.78792885 6.42482033 41.38985707 0.5625 41.3125 C-0.55705078 41.34021484 -1.67660156 41.36792969 -2.83007812 41.39648438 C-11.98693678 41.36931269 -11.98693678 41.36931269 -15.76171875 37.79296875 C-18.21465594 34.32118505 -18.59279746 32.77458224 -18 28.625 C-11.9453125 28.4296875 -11.9453125 28.4296875 -10 28.625 C-9.34 29.285 -8.68 29.945 -8 30.625 C-5.26565038 30.9313859 -2.61720179 31.1363336 0.125 31.25 C0.87910156 31.28867188 1.63320313 31.32734375 2.41015625 31.3671875 C4.27303184 31.46151031 6.13648255 31.54434662 8 31.625 C8 29.315 8 27.005 8 24.625 C7.39003174 24.65118408 6.78006348 24.67736816 6.15161133 24.7043457 C3.37217242 24.80865719 0.59314561 24.87342982 -2.1875 24.9375 C-3.14720703 24.97939453 -4.10691406 25.02128906 -5.09570312 25.06445312 C-9.69956787 25.14410476 -12.22551991 25.1390696 -16.13671875 22.54296875 C-18.41149825 18.98057821 -18.6703429 16.83282085 -18.625 12.625 C-18.63789062 11.42875 -18.65078125 10.2325 -18.6640625 9 C-18 5.625 -18 5.625 -16.2734375 2.7265625 C-11.09988913 -0.59488025 -6.01433963 -0.09892006 0 0 Z " fill="#FBFBFB" transform="translate(690,172.375)"/>
<path d="M0 0 C1.7634375 -0.02900391 1.7634375 -0.02900391 3.5625 -0.05859375 C13.13228522 -0.00421997 13.13228522 -0.00421997 16.29296875 2.92578125 C18.45926296 6.35120299 18.39002137 8.64678201 18 12.625 C11.9453125 12.8203125 11.9453125 12.8203125 10 12.625 C9.34 11.965 8.68 11.305 8 10.625 C5.26565038 10.3186141 2.61720179 10.1136664 -0.125 10 C-0.87910156 9.96132812 -1.63320313 9.92265625 -2.41015625 9.8828125 C-4.27303184 9.78848969 -6.13648255 9.70565338 -8 9.625 C-8 11.605 -8 13.585 -8 15.625 C-7.42556152 15.5935791 -6.85112305 15.5621582 -6.25927734 15.52978516 C-3.631593 15.40430436 -1.00453919 15.32680156 1.625 15.25 C2.52863281 15.19972656 3.43226563 15.14945313 4.36328125 15.09765625 C8.94787607 14.99726366 12.09982104 15.0760296 15.6015625 18.2421875 C18.2344461 21.41006557 18.80933667 23.97143334 18.75 28.125 C18.76546875 29.2078125 18.7809375 30.290625 18.796875 31.40625 C17.88590842 35.08584048 16.89234929 36.94807669 14.09521484 39.46923828 C9.57987583 41.95998809 4.45633556 41.43674291 -0.5625 41.3125 C-1.68591797 41.32732422 -2.80933594 41.34214844 -3.96679688 41.35742188 C-12.08052916 41.27546498 -12.08052916 41.27546498 -16.2578125 38.3203125 C-18.47049376 34.89710607 -18.39202197 32.62362412 -18 28.625 C-11.9453125 28.4296875 -11.9453125 28.4296875 -10 28.625 C-9.34 29.285 -8.68 29.945 -8 30.625 C-5.26565038 30.9313859 -2.61720179 31.1363336 0.125 31.25 C0.87910156 31.28867188 1.63320313 31.32734375 2.41015625 31.3671875 C4.27303184 31.46151031 6.13648255 31.54434662 8 31.625 C8 29.315 8 27.005 8 24.625 C7.39003174 24.65118408 6.78006348 24.67736816 6.15161133 24.7043457 C3.37217242 24.80865719 0.59314561 24.87342982 -2.1875 24.9375 C-3.14720703 24.97939453 -4.10691406 25.02128906 -5.09570312 25.06445312 C-9.69956787 25.14410476 -12.22551991 25.1390696 -16.13671875 22.54296875 C-18.41149825 18.98057821 -18.6703429 16.83282085 -18.625 12.625 C-18.63789062 11.42875 -18.65078125 10.2325 -18.6640625 9 C-18 5.625 -18 5.625 -16.2734375 2.7265625 C-11.09988913 -0.59488025 -6.01433963 -0.09892006 0 0 Z " fill="#FBFBFB" transform="translate(776,172.375)"/>
<path d="M0 0 C1.134375 -0.00644531 2.26875 -0.01289063 3.4375 -0.01953125 C4.613125 -0.00019531 5.78875 0.01914063 7 0.0390625 C8.7634375 0.01005859 8.7634375 0.01005859 10.5625 -0.01953125 C20.13228522 0.03484253 20.13228522 0.03484253 23.29296875 2.96484375 C25.45926296 6.39026549 25.39002137 8.68584451 25 12.6640625 C18.9453125 12.859375 18.9453125 12.859375 17 12.6640625 C16.34 12.0040625 15.68 11.3440625 15 10.6640625 C12.2583392 10.35685738 9.62345231 10.15342326 6.875 10.0390625 C4.27625 9.9153125 1.6775 9.7915625 -1 9.6640625 C-1 16.9240625 -1 24.1840625 -1 31.6640625 C4.28 31.6640625 9.56 31.6640625 15 31.6640625 C15 29.3540625 15 27.0440625 15 24.6640625 C12.03 24.6640625 9.06 24.6640625 6 24.6640625 C6 22.0240625 6 19.3840625 6 16.6640625 C12.27 16.6640625 18.54 16.6640625 25 16.6640625 C25.12375 19.5103125 25.2475 22.3565625 25.375 25.2890625 C25.42962402 26.17416504 25.48424805 27.05926758 25.54052734 27.97119141 C25.62513027 32.01302816 25.34493399 34.987226 22.76171875 38.20703125 C18.09515898 42.16520008 12.23658216 41.49512067 6.4375 41.3515625 C5.31408203 41.36638672 4.19066406 41.38121094 3.03320312 41.39648438 C-5.13375546 41.31398984 -5.13375546 41.31398984 -8.81762695 38.55004883 C-11.48495582 35.02275333 -11.6434315 33.17462409 -11.6640625 28.7890625 C-11.67050781 27.47421875 -11.67695313 26.159375 -11.68359375 24.8046875 C-11.67312012 24.12470703 -11.66264648 23.44472656 -11.65185547 22.74414062 C-11.62506008 20.66871569 -11.65162887 18.59869574 -11.68359375 16.5234375 C-11.67392578 14.55117187 -11.67392578 14.55117187 -11.6640625 12.5390625 C-11.65842285 11.34023437 -11.6527832 10.14140625 -11.64697266 8.90625 C-10.34175078 2.36536453 -6.37739392 0.03487637 0 0 Z " fill="#FDFDFD" transform="translate(407,172.3359375)"/>
<path d="M0 0 C11.22 0 22.44 0 34 0 C34 2.97 34 5.94 34 9 C26.41 9 18.82 9 11 9 C11 10.98 11 12.96 11 15 C17.6 15 24.2 15 31 15 C31 17.97 31 20.94 31 24 C24.4 24 17.8 24 11 24 C11 26.31 11 28.62 11 31 C18.59 31 26.18 31 34 31 C34 33.97 34 36.94 34 40 C29.45882117 40.17469518 24.91850909 40.28099636 20.375 40.375 C19.08980469 40.42527344 17.80460938 40.47554687 16.48046875 40.52734375 C15.23652344 40.54667969 13.99257813 40.56601563 12.7109375 40.5859375 C10.99849854 40.63306885 10.99849854 40.63306885 9.25146484 40.68115234 C5.40420342 39.87518603 3.72353955 38.70282548 1.13973999 35.81161499 C-0.82290438 32.69199473 -0.74086629 29.52691231 -0.5859375 25.9765625 C-0.57989502 25.31422607 -0.57385254 24.65188965 -0.56762695 23.96948242 C-0.53648738 21.52067772 -0.45271788 19.0727692 -0.375 16.625 C-0.25125 11.13875 -0.1275 5.6525 0 0 Z " fill="#FAFAFA" transform="translate(838,173)"/>
<path d="M0 0 C11.88 0 23.76 0 36 0 C36 9.24 36 18.48 36 28 C24.12 28 12.24 28 0 28 C0 18.76 0 9.52 0 0 Z " fill="#646464" transform="translate(548,72)"/>
<path d="M0 0 C11.88 0 23.76 0 36 0 C36 9.24 36 18.48 36 28 C24.12 28 12.24 28 0 28 C0 18.76 0 9.52 0 0 Z " fill="#5E5E5E" transform="translate(351,72)"/>
<path d="M0 0 C11.22 0 22.44 0 34 0 C34 2.97 34 5.94 34 9 C26.41 9 18.82 9 11 9 C11 10.98 11 12.96 11 15 C17.6 15 24.2 15 31 15 C31 17.97 31 20.94 31 24 C24.07 24 17.14 24 10 24 C10 26.31 10 28.62 10 31 C17.92 31 25.84 31 34 31 C34 33.97 34 36.94 34 40 C29.45882117 40.17469518 24.91850909 40.28099636 20.375 40.375 C19.08980469 40.42527344 17.80460938 40.47554687 16.48046875 40.52734375 C15.23652344 40.54667969 13.99257813 40.56601563 12.7109375 40.5859375 C10.99849854 40.63306885 10.99849854 40.63306885 9.25146484 40.68115234 C5.40420342 39.87518603 3.72353955 38.70282548 1.13973999 35.81161499 C-0.82290438 32.69199473 -0.74086629 29.52691231 -0.5859375 25.9765625 C-0.57989502 25.31422607 -0.57385254 24.65188965 -0.56762695 23.96948242 C-0.53648738 21.52067772 -0.45271788 19.0727692 -0.375 16.625 C-0.25125 11.13875 -0.1275 5.6525 0 0 Z " fill="#FBFBFB" transform="translate(530,173)"/>
<path d="M0 0 C11.22 0 22.44 0 34 0 C34 2.97 34 5.94 34 9 C26.08 9 18.16 9 10 9 C10 11.31 10 13.62 10 16 C16.93 16 23.86 16 31 16 C31 18.64 31 21.28 31 24 C24.07 24 17.14 24 10 24 C10 26.31 10 28.62 10 31 C17.92 31 25.84 31 34 31 C34 33.97 34 36.94 34 40 C29.96174934 40.12406007 25.92424362 40.21455045 21.88452148 40.2746582 C20.51192898 40.29972617 19.13946898 40.33379082 17.76733398 40.37719727 C15.78949304 40.43817531 13.81065816 40.46361009 11.83203125 40.48828125 C10.04889526 40.52755737 10.04889526 40.52755737 8.22973633 40.56762695 C3.91284061 39.80893147 2.51765504 38.56492473 0 35 C-0.43900428 32.07613709 -0.58958897 29.75959055 -0.48828125 26.85546875 C-0.48120651 26.08568192 -0.47413177 25.31589508 -0.46684265 24.52278137 C-0.43896925 22.07667697 -0.37625137 19.63290616 -0.3125 17.1875 C-0.28740768 15.52412173 -0.26459613 13.86070738 -0.24414062 12.19726562 C-0.19342534 8.1298998 -0.09558199 4.06754472 0 0 Z " fill="#FDFDFD" transform="translate(440,173)"/>
<path d="M0 0 C3.3 0 6.6 0 10 0 C10.55429687 0.99902344 11.10859375 1.99804688 11.6796875 3.02734375 C12.41117338 4.33088911 13.14295982 5.63426584 13.875 6.9375 C14.23980469 7.59685547 14.60460937 8.25621094 14.98046875 8.93554688 C16.85417898 12.57936369 16.85417898 12.57936369 20 15 C20.2784375 14.28457031 20.556875 13.56914062 20.84375 12.83203125 C24.61326757 3.59926017 24.61326757 3.59926017 28 0 C31.4774812 -0.85639463 34.49493636 -0.62343029 38 0 C37.71176662 6.76447715 34.8305654 10.63733756 31 16.0625 C25.54177744 24.15106751 23.15656697 30.05722222 24 40 C20.7 40 17.4 40 14 40 C14.11794922 38.83210938 14.11794922 38.83210938 14.23828125 37.640625 C14.46636294 27.22089314 10.56315185 21.18675312 4.57348633 12.93066406 C0.07309686 6.65290402 0.07309686 6.65290402 -0.40234375 2.40625 C-0.26957031 1.6121875 -0.13679687 0.818125 0 0 Z " fill="#FBFBFB" transform="translate(714,173)"/>
<path d="M0 0 C11.22 0 22.44 0 34 0 C34 2.97 34 5.94 34 9 C30.04 9 26.08 9 22 9 C22 19.23 22 29.46 22 40 C18.37 40 14.74 40 11 40 C11 29.77 11 19.54 11 9 C7.37 9 3.74 9 0 9 C0 6.03 0 3.06 0 0 Z " fill="#F8F8F8" transform="translate(613,173)"/>
<path d="M0 0 C11.22 0 22.44 0 34 0 C34 2.97 34 5.94 34 9 C30.04 9 26.08 9 22 9 C22 19.23 22 29.46 22 40 C18.7 40 15.4 40 12 40 C12 29.77 12 19.54 12 9 C8.04 9 4.08 9 0 9 C0 6.03 0 3.06 0 0 Z " fill="#FDFDFD" transform="translate(799,173)"/>
<path d="M0 0 C8.58 0 17.16 0 26 0 C26 6.27 26 12.54 26 19 C31.28 19 36.56 19 42 19 C42 21.97 42 24.94 42 28 C33.75 28 25.5 28 17 28 C17 21.73 17 15.46 17 9 C11.39 9 5.78 9 0 9 C0 6.03 0 3.06 0 0 Z " fill="#F7F7F7" transform="translate(45,78)"/>
<path d="M0 0 C2.97 0 5.94 0 9 0 C9 5.61 9 11.22 9 17 C14.28 17 19.56 17 25 17 C25 25.25 25 33.5 25 42 C22.03 42 19.06 42 16 42 C16 36.72 16 31.44 16 26 C10.72 26 5.44 26 0 26 C0 17.42 0 8.84 0 0 Z " fill="#F5F5F5" transform="translate(96,158)"/>
<path d="M0 0 C8.58 0 17.16 0 26 0 C26 5.28 26 10.56 26 16 C31.28 16 36.56 16 42 16 C42 18.97 42 21.94 42 25 C33.75 25 25.5 25 17 25 C17 19.72 17 14.44 17 9 C11.39 9 5.78 9 0 9 C0 6.03 0 3.06 0 0 Z " fill="#F5F5F5" transform="translate(95,62)"/>
<path d="M0 0 C9.24 0 18.48 0 28 0 C28 2.97 28 5.94 28 9 C21.4 9 14.8 9 8 9 C8 14.28 8 19.56 8 25 C0.74 25 -6.52 25 -14 25 C-14 22.03 -14 19.06 -14 16 C-9.38 16 -4.76 16 0 16 C0 10.72 0 5.44 0 0 Z " fill="#F9F9F9" transform="translate(47,128)"/>
<path d="M0 0 C8.25 0 16.5 0 25 0 C25 5.28 25 10.56 25 16 C30.61 16 36.22 16 42 16 C42 18.64 42 21.28 42 24 C33.42 24 24.84 24 16 24 C16 19.05 16 14.1 16 9 C10.72 9 5.44 9 0 9 C0 6.03 0 3.06 0 0 Z " fill="#F8F8F8" transform="translate(63,178)"/>
<path d="M0 0 C2.97 0 5.94 0 9 0 C9 5.28 9 10.56 9 16 C13.95 16 18.9 16 24 16 C24 24.58 24 33.16 24 42 C21.36 42 18.72 42 16 42 C16 36.39 16 30.78 16 25 C10.72 25 5.44 25 0 25 C0 16.75 0 8.5 0 0 Z " fill="#F9F9F9" transform="translate(80,65)"/>
<path d="M0 0 C2.64 0 5.28 0 8 0 C8 8.25 8 16.5 8 25 C2.72 25 -2.56 25 -8 25 C-8 30.61 -8 36.22 -8 42 C-10.97 42 -13.94 42 -17 42 C-17 33.75 -17 25.5 -17 17 C-11.39 17 -5.78 17 0 17 C0 11.39 0 5.78 0 0 Z " fill="#FCFCFC" transform="translate(47,95)"/>
<path d="M0 0 C2.64 0 5.28 0 8 0 C8 8.25 8 16.5 8 25 C3.05 25 -1.9 25 -7 25 C-7 30.28 -7 35.56 -7 41 C-9.97 41 -12.94 41 -16 41 C-16 32.75 -16 24.5 -16 16 C-10.72 16 -5.44 16 0 16 C0 10.72 0 5.44 0 0 Z " fill="#FAFAFA" transform="translate(162,128)"/>
<path d="M0 0 C2.64 0 5.28 0 8 0 C8 8.25 8 16.5 8 25 C3.05 25 -1.9 25 -7 25 C-7 30.28 -7 35.56 -7 41 C-9.97 41 -12.94 41 -16 41 C-16 32.75 -16 24.5 -16 16 C-10.72 16 -5.44 16 0 16 C0 10.72 0 5.44 0 0 Z " fill="#FBFBFB" transform="translate(146,78)"/>
<path d="M0 0 C7.92 0 15.84 0 24 0 C24 6.27 24 12.54 24 19 C29.61 19 35.22 19 41 19 C41 21.64 41 24.28 41 27 C32.75 27 24.5 27 16 27 C16 20.73 16 14.46 16 8 C10.72 8 5.44 8 0 8 C0 5.36 0 2.72 0 0 Z " fill="#FFFFFF" transform="translate(114,159)"/>
<path d="M0 0 C2.64 0 5.28 0 8 0 C8 7.92 8 15.84 8 24 C3.05 24 -1.9 24 -7 24 C-7 29.61 -7 35.22 -7 41 C-9.97 41 -12.94 41 -16 41 C-16 32.75 -16 24.5 -16 16 C-10.72 16 -5.44 16 0 16 C0 10.72 0 5.44 0 0 Z " fill="#FDFDFD" transform="translate(62,146)"/>
<path d="M0 0 C2.97 0 5.94 0 9 0 C9 8.25 9 16.5 9 25 C3.72 25 -1.56 25 -7 25 C-7 28.63 -7 32.26 -7 36 C-9.97 36 -12.94 36 -16 36 C-16 29.4 -16 22.8 -16 16 C-10.72 16 -5.44 16 0 16 C0 10.72 0 5.44 0 0 Z " fill="#F7F7F7" transform="translate(112,96)"/>
<path d="M0 0 C6.93 0 13.86 0 21 0 C21 2.64 21 5.28 21 8 C16.71 8 12.42 8 8 8 C8 13.28 8 18.56 8 24 C-1.24 24 -10.48 24 -20 24 C-20 21.36 -20 18.72 -20 16 C-13.4 16 -6.8 16 0 16 C0 10.72 0 5.44 0 0 Z " fill="#FFFFFF" transform="translate(146,112)"/>
<path d="M0 0 C8.25 0 16.5 0 25 0 C25 2.97 25 5.94 25 9 C19.39 9 13.78 9 8 9 C8 15.6 8 22.2 8 29 C5.36 29 2.72 29 0 29 C0 19.43 0 9.86 0 0 Z " fill="#F8F8F8" transform="translate(80,140)"/>
<path d="M0 0 C2.97 0 5.94 0 9 0 C9 3.96 9 7.92 9 12 C14.61 12 20.22 12 26 12 C26 14.64 26 17.28 26 20 C17.42 20 8.84 20 0 20 C0 13.4 0 6.8 0 0 Z " fill="#F8F8F8" transform="translate(111,132)"/>
<path d="M0 0 C8.25 0 16.5 0 25 0 C25 6.6 25 13.2 25 20 C22.36 20 19.72 20 17 20 C16.67 16.37 16.34 12.74 16 9 C10.72 8.67 5.44 8.34 0 8 C0 5.36 0 2.72 0 0 Z " fill="#FEFEFE" transform="translate(64,112)"/>
<path d="M0 0 C4.62 0 9.24 0 14 0 C14 3.63 14 7.26 14 11 C9.38 11 4.76 11 0 11 C0 7.37 0 3.74 0 0 Z " fill="#595959" transform="translate(363,182)"/>
<path d="M0 0 C4.62 0 9.24 0 14 0 C14 3.63 14 7.26 14 11 C9.38 11 4.76 11 0 11 C0 7.37 0 3.74 0 0 Z " fill="#585858" transform="translate(277,182)"/>
</svg>
